<svg xmlns="http://www.w3.org/2000/svg" viewBox="0 0 1920 430.38"><defs><style>.cls-1{fill:#f1f1ed;}.cls-2{fill:#ebebe2;}.cls-3{fill:#e5e5d7;}</style></defs><title>Asset 1</title><g id="Layer_2" data-name="Layer 2"><g id="visual"><path class="cls-1" d="M0,120.38l26.7-13.3c26.6-13.4,80-40,133.3-44.9s106.7,12.2,160,15.2,106.7-8,160-11.3,106.7,1,160-10,106.7-37.4,160-17.9,106.7,84.9,160,107.9,106.7,3.6,160-22,106.7-57.7,160-58.4,106.7,30,160,37.7,106.7-7.7,160-29.3,106.7-49.7,160-62.9S1866.7-.32,1893.3.58l26.7.8v429H0Z"/><path class="cls-2" d="M0,249.38l26.7-8.3c26.6-8.4,80-25,133.3-34.9a623.74,623.74,0,0,1,160-8.8c53.3,4,106.7,15,160,7.8s106.7-32.5,160-27.1,106.7,41.3,160,52.1,106.7-3.5,160-8.5,106.7-.6,160-15.1,106.7-47.9,160-48,106.7,32.8,160,36.3,106.7-22.5,160-38.8,106.7-23,160-5.9,106.7,58.2,133.3,78.7l26.7,20.5v181H0Z"/><path class="cls-3" d="M0,309.38l26.7-13.5c26.6-13.5,80-40.5,133.3-49.2s106.7,1,160,14.2,106.7,29.8,160,40.3,106.7,14.9,160,16.2,106.7-.3,160-14.2,106.7-39.8,160-46.5,106.7,6,160,11.5,106.7,3.9,160-.8,106.7-12.3,160-19.7,106.7-14.3,160-9.8,106.7,20.5,160,21.8,106.7-12,133.3-18.6l26.7-6.7v196H0Z"/></g></g></svg>